<svg width="1496" height="260" viewBox="0 0 1496 260" fill="none" xmlns="http://www.w3.org/2000/svg">
<path d="M159.701 68.7548H255.133V96.5078H194.271V120.366H250.264V148.605H194.271V174.898H255.133V202.651H159.701V68.7548ZM373.448 159.804C373.448 170.516 367.605 176.358 350.564 176.358C333.523 176.358 327.68 170.516 327.68 159.804V69.2417H293.111V163.699C293.111 185.123 306.257 206.059 350.564 206.059C394.872 206.059 408.018 184.636 408.018 163.699V69.2417H373.448V159.804ZM608.618 203.138H643.188V68.7548H608.618V203.138ZM761.99 136.92V174.411C755.66 175.385 748.844 176.358 741.541 176.358C723.525 176.358 720.117 170.029 720.117 158.83V112.575C720.117 100.403 725.96 96.0209 740.567 96.0209C755.174 96.0209 770.267 97.4815 786.822 99.916L789.743 71.1893C772.702 67.781 756.634 66.3203 741.054 66.3203C701.615 66.3203 685.061 79.9534 685.061 108.193V164.186C685.061 190.965 700.154 206.059 740.08 206.059C758.095 206.059 777.084 203.624 793.151 199.242V137.407H761.99V136.92ZM20.9365 115.01C9.25099 115.01 0 124.261 0 135.946C0 147.632 9.25099 156.883 20.9365 156.883C32.6219 156.883 41.8729 147.632 41.8729 135.946C41.8729 124.261 32.6219 115.01 20.9365 115.01ZM20.9365 66.3203C9.25099 66.3203 0 75.5713 0 87.2568C0 98.9422 9.25099 108.193 20.9365 108.193C32.6219 108.193 41.8729 98.9422 41.8729 87.2568C41.8729 75.5713 32.6219 66.3203 20.9365 66.3203ZM20.9365 163.699C9.25099 163.699 0 172.95 0 184.636C0 196.321 9.25099 205.572 20.9365 205.572C32.6219 205.572 41.8729 196.321 41.8729 184.636C41.8729 172.95 32.6219 163.699 20.9365 163.699ZM126.593 68.7548H87.641L48.2026 135.946L87.641 203.138H126.593L86.1803 135.946L126.593 68.7548ZM545.809 158.343L573.075 203.138H534.123L512.7 165.16H486.408V203.138H451.838V68.7548H515.621C551.652 68.7548 563.337 82.8747 563.337 107.706V126.695C562.85 141.789 558.468 150.553 545.809 158.343ZM529.254 109.167C529.254 100.403 525.359 96.9946 514.648 96.9946H485.921V137.894H513.674C524.872 137.894 528.768 133.999 528.768 124.748V109.167H529.254Z" fill="black"/>
<path d="M810.192 74.598C810.192 77.5194 807.758 79.9539 804.349 79.9539C801.428 79.9539 798.507 77.5194 798.507 74.598C798.507 71.6767 800.941 69.2422 804.349 69.2422C807.758 69.2422 810.192 71.6767 810.192 74.598ZM808.732 74.598C808.732 72.1636 806.784 70.216 804.349 70.216C801.915 70.216 799.967 72.1636 799.967 74.598C799.967 77.0325 801.915 78.9801 804.349 78.9801C806.784 78.9801 808.732 77.0325 808.732 74.598ZM807.271 73.6242C807.271 74.598 806.784 75.0849 805.81 75.0849L807.271 77.0325H805.81L804.349 75.0849H803.863V77.0325H802.889V71.6767H805.323C806.297 72.1636 807.271 72.6505 807.271 73.6242ZM803.863 73.1374V74.598H805.323C805.81 74.598 806.297 74.598 806.297 74.1111C806.297 73.6242 805.81 73.6242 805.323 73.6242H803.863V73.1374Z" fill="black"/>
<path d="M932.899 66.218C910.502 66.218 894.434 74.9821 883.723 88.6152V68.6525H862.786V260.002H884.21V183.56C894.921 197.193 910.989 205.957 933.386 205.957C970.877 205.957 1000.58 176.256 1000.58 135.844C1000.58 95.4317 970.877 66.218 932.899 66.218ZM930.465 185.994C902.225 185.994 882.749 164.571 882.749 135.844C882.749 107.117 902.712 85.6938 930.465 85.6938C958.218 85.6938 978.667 108.091 978.667 135.844C978.667 163.597 959.191 185.994 930.465 185.994Z" fill="#E6431E"/>
<path d="M1148.11 135.357C1147.62 94.4575 1121.33 65.7307 1084.81 65.7307C1046.35 66.2176 1018.11 94.9444 1018.11 136.33C1018.11 177.716 1046.35 205.956 1086.27 205.956C1106.23 205.956 1124.74 201.087 1141.29 185.02L1130.09 170.413C1118.41 181.125 1104.29 187.454 1087.25 187.454C1062.9 187.454 1042.45 172.361 1039.53 143.634H1147.13C1147.62 141.199 1148.11 138.278 1148.11 135.357ZM1040.02 126.106C1043.42 101.761 1059.49 84.7196 1084.32 84.7196C1107.21 84.7196 1123.76 100.787 1126.2 126.106H1040.02Z" fill="#E6431E"/>
<path d="M1230.88 66.218C1214.33 66.218 1200.21 74.0083 1190.95 87.6414V68.6525H1169.53V203.035H1190.47V128.054C1190.47 102.735 1205.56 86.1807 1226.5 86.1807C1234.29 86.1807 1243.05 88.1283 1249.87 91.5365V68.6525C1244.51 66.7049 1238.18 66.218 1230.88 66.218Z" fill="#E6431E"/>
<path d="M1450.47 126.593L1434.4 124.645C1416.87 122.698 1407.14 116.855 1407.14 105.656C1407.14 92.5103 1419.79 84.72 1438.78 84.72C1456.8 84.72 1474.33 91.5365 1482.6 97.3792L1491.85 80.8248C1479.2 72.0607 1459.72 66.218 1438.3 66.218C1406.16 66.218 1384.74 81.3117 1384.74 107.117C1384.74 127.08 1398.86 140.713 1429.05 144.121L1445.6 146.069C1464.59 148.503 1473.84 154.833 1473.84 165.544C1473.84 179.664 1459.72 187.455 1436.84 187.455C1413.95 187.455 1400.32 180.638 1390.09 172.848L1380.36 188.915C1397.4 201.575 1419.31 205.957 1436.35 205.957C1472.87 205.957 1495.75 189.889 1495.75 164.084C1495.75 142.174 1479.2 130.488 1450.47 126.593Z" fill="#E6431E"/>
<path d="M1290.73 0H1269.31V203.522H1290.73V0Z" fill="#E6431E"/>
<path d="M1376.43 203.034H1349.65L1290.73 135.843L1349.65 68.6514H1376.43L1317.03 135.843L1376.43 203.034Z" fill="#E6431E"/>
</svg>
